<svg xmlns="http://www.w3.org/2000/svg" viewBox="0 0 32 32" id="behance">
  <path d="M13.43 15.63A5 5 0 0 0 10 7H4a1 1 0 0 0-1 1v16a1 1 0 0 0 1 1h7a5 5 0 0 0 2.43-9.37zM11 23H5V9h5a3 3 0 0 1 0 6H8a1 1 0 0 0 0 2h3a3 3 0 0 1 0 6zm12-11a6.27 6.27 0 0 0-6 6.5 6.27 6.27 0 0 0 6 6.5 5.9 5.9 0 0 0 4.83-2.64 1 1 0 0 0-1.66-1.12A3.83 3.83 0 0 1 23 23a4.27 4.27 0 0 1-4-4.5 4.27 4.27 0 0 1 4-4.5 4.14 4.14 0 0 1 3.9 3.5h-5.41a1 1 0 1 0 0 2H28a1 1 0 0 0 1-1 6.27 6.27 0 0 0-6-6.5zm-3.5-2h7a1 1 0 0 0 0-2h-7a1 1 0 0 0 0 2z"></path>
</svg>
