<svg xmlns="http://www.w3.org/2000/svg" xmlns:xlink="http://www.w3.org/1999/xlink" width="38.652" height="61.134" viewBox="0 0 38.652 61.134"><defs><clipPath id="a"><path d="M105.689,55.455l7.633,4.69a7.337,7.337,0,0,0,10.093-2.41l15.769-25.662a7.337,7.337,0,0,0-2.41-10.093l-7.633-4.69a7.337,7.337,0,0,0-10.093,2.41L103.28,45.362A7.337,7.337,0,0,0,105.689,55.455Z" transform="translate(-102.192 -16.202)"/></clipPath><clipPath id="b"><path d="M126.86,144.082l-5.007,8.149A9.032,9.032,0,0,1,109.43,155.2l-6.378-3.918a9.032,9.032,0,0,1-2.967-12.423l5.14-8.365a1.221,1.221,0,0,1,1.691-.394l19.552,12.311A1.22,1.22,0,0,1,126.86,144.082Z" transform="translate(-98.748 -129.909)"/></clipPath></defs><g transform="translate(-98.748 -16.202)"><g transform="translate(99.321 16.202)"><path d="M105.689,55.455l7.633,4.69a7.337,7.337,0,0,0,10.093-2.41l15.769-25.662a7.337,7.337,0,0,0-2.41-10.093l-7.633-4.69a7.337,7.337,0,0,0-10.093,2.41L103.28,45.362A7.337,7.337,0,0,0,105.689,55.455Z" transform="translate(-102.192 -16.202)" fill="#bcc3cc"/><g transform="translate(0 0)" clip-path="url(#a)"><path d="M152.044,26.675l7.633,4.69a7.337,7.337,0,0,0,10.093-2.41L185.539,3.292A7.337,7.337,0,0,0,183.129-6.8L175.5-11.49A7.337,7.337,0,0,0,165.4-9.081L149.634,16.582A7.334,7.334,0,0,0,152.044,26.675Z" transform="translate(-140.837 7.791)" fill="#dbdde1"/></g></g><g transform="translate(98.748 35.112)"><path d="M126.86,144.082l-5.007,8.149A9.032,9.032,0,0,1,109.43,155.2l-6.378-3.918a9.032,9.032,0,0,1-2.967-12.423l5.14-8.365a1.221,1.221,0,0,1,1.691-.394l19.552,12.311A1.22,1.22,0,0,1,126.86,144.082Z" transform="translate(-98.748 -129.909)" fill="#0f2a14"/><g transform="translate(0)" clip-path="url(#b)"><path d="M124.405,154.979l-7.429,12.09c-3.873,6.3-10.459,9.3-14.71,6.687l-6.378-3.918c-4.249-2.611-9.318-2.874-.68-16.143l7.627-12.41c.529-.86,1.427-1.262,2-.9L124.324,152.8C124.889,153.162,124.926,154.132,124.405,154.979Z" transform="translate(-91.866 -138.533)" fill="#23582d"/></g></g><path d="M124.806,118.73l2.308,1.419,5.545,3.408,6.705,4.121,5.792,3.559c.935.574,1.863,1.161,2.8,1.723.013.008.027.017.04.023a2,2,0,1,0,2.014-3.446l-2.308-1.419-5.545-3.408-6.705-4.121-5.792-3.559c-.935-.574-1.863-1.161-2.8-1.723-.013-.008-.027-.017-.04-.023a2,2,0,1,0-2.014,3.446Z" transform="translate(-20.915 -82.381)" fill="#ffab00"/><path d="M136.916,191.522l-.466-.288a1.26,1.26,0,0,1-.407-1.73l11.724-18.945a1.26,1.26,0,0,1,1.73-.407l.466.288a1.26,1.26,0,0,1,.407,1.73l-11.724,18.945A1.259,1.259,0,0,1,136.916,191.522Z" transform="translate(-30.937 -128.192)" fill="#ffd600"/><path d="M148.863,309.942l-.446.323a1.26,1.26,0,0,1-1.755-.279l-7.435-10.251a1.26,1.26,0,0,1,.279-1.755l.446-.323a1.26,1.26,0,0,1,1.755.279l7.435,10.251A1.26,1.26,0,0,1,148.863,309.942Z" transform="translate(-33.549 -234.45)" fill="#ffd600"/><circle cx="3.399" cy="3.399" r="3.399" transform="translate(102.957 59.424)" fill="#ffab00"/><path d="M131.216,191.692q.831-1.34,1.66-2.681,1.617-2.614,3.235-5.227l2.964-4.79q.7-1.123,1.39-2.247l2.927-4.73.062-.1c.181-.291-.279-.559-.459-.268l-2.6,4.206-1.578,2.549q-1.37,2.215-2.741,4.429-1.676,2.707-3.351,5.415L131,191.025c-.083.133-.165.266-.248.4-.18.289.281.555.461.266Z" transform="translate(-26.651 -129.492)" fill="#ffab00"/><path d="M138.762,359.758H125.684c-.607,0-1.214-.01-1.821,0h-.025a2.065,2.065,0,0,0-1.412.584,2,2,0,0,0,1.412,3.408h13.078c.607,0,1.214.01,1.821,0h.025a2.065,2.065,0,0,0,1.412-.584,2,2,0,0,0-1.412-3.408Z" transform="translate(-19.253 -286.417)" fill="#ffab00"/><path d="M145.7,310.423a1.012,1.012,0,0,1-.083,1.3,1,1,0,0,1-1.279.11,2.088,2.088,0,0,1-.437-.512q-.871-1.2-1.74-2.4l-2.529-3.487-2.19-3.02c-.206-.283-.411-.567-.617-.85a1.2,1.2,0,0,1-.308-1.024.968.968,0,0,1,.358-.552c.274-.2.01-.66-.268-.459a1.541,1.541,0,0,0-.351,2.15c.153.215.311.427.466.642l2.18,3.005q1.357,1.871,2.714,3.744.928,1.277,1.854,2.556a2.216,2.216,0,0,0,.72.738,1.534,1.534,0,0,0,2.24-1.444,1.57,1.57,0,0,0-.269-.767c-.2-.279-.657-.015-.461.268Z" transform="translate(-31.028 -236.168)" fill="#ffab00"/><path d="M289.405,79.781l3.788,2.265.542.324a.266.266,0,0,0,.268-.459l-3.788-2.265-.542-.324a.266.266,0,0,0-.268.459Z" transform="translate(-158.845 -52.59)" fill="#4d595f"/><path d="M241.384,51.07l4.154,2.485.587.351a.266.266,0,0,0,.268-.459l-4.154-2.485-.587-.351a.266.266,0,0,0-.268.459Z" transform="translate(-118.809 -28.654)" fill="#4d595f"/><path d="M277.394,99.18l4.174,2.6c.2.125.4.249.6.373.291.181.559-.278.268-.459l-4.174-2.6c-.2-.125-.4-.249-.6-.373-.291-.181-.557.278-.268.459Z" transform="translate(-148.833 -68.761)" fill="#4d595f"/><path d="M229.811,69.57l4.121,2.564.584.363c.291.181.559-.278.268-.459l-4.121-2.564-.584-.363c-.291-.181-.559.278-.268.459Z" transform="translate(-109.162 -44.075)" fill="#4d595f"/><path d="M266.3,117.264l4.154,2.553.582.358c.293.18.559-.279.268-.459l-4.154-2.553-.582-.358c-.291-.18-.559.279-.268.459Z" transform="translate(-139.584 -83.838)" fill="#4d595f"/><path d="M218.5,87.887q2.063,1.267,4.128,2.536l.584.359c.293.18.559-.279.268-.459q-2.063-1.267-4.128-2.536l-.584-.359c-.293-.178-.559.281-.268.459Z" transform="translate(-99.731 -59.347)" fill="#4d595f"/><path d="M254.825,135.644l4.123,2.533c.195.12.389.239.584.358.293.18.559-.279.268-.459l-4.123-2.533c-.195-.12-.389-.239-.584-.358-.293-.18-.56.281-.268.459Z" transform="translate(-130.016 -99.162)" fill="#4d595f"/><path d="M206.659,106.044q2.1,1.287,4.191,2.576l.6.371c.293.18.559-.279.268-.459q-2.1-1.287-4.191-2.576l-.6-.371c-.293-.18-.559.281-.268.459Z" transform="translate(-89.86 -74.484)" fill="#4d595f"/><path d="M243.351,154.027l4.051,2.49.577.354c.293.18.559-.279.268-.459l-4.051-2.49-.577-.354c-.291-.178-.559.281-.268.459Z" transform="translate(-120.45 -114.488)" fill="#4d595f"/><path d="M195.471,124.614l4.158,2.554.582.358c.293.18.559-.279.268-.459l-4.158-2.554-.582-.358c-.291-.18-.559.279-.268.459Z" transform="translate(-80.533 -89.965)" fill="#4d595f"/></g></svg>