<svg xmlns="http://www.w3.org/2000/svg" xmlns:xlink="http://www.w3.org/1999/xlink" width="66.893" height="60.025" viewBox="0 0 66.893 60.025"><defs><clipPath id="a"><path d="M79.684,69.795a2.089,2.089,0,0,1,2.083,2.249,30.008,30.008,0,1,1-16.9-29.293,2.074,2.074,0,0,1,.705,3.129L51.843,69.786l25.2.007Z" transform="translate(-21.83 -39.774)"/></clipPath><clipPath id="b"><path d="M101.705,95.17A24.411,24.411,0,1,1,89.45,73.993L77.293,95.163Z" transform="translate(-52.88 -70.734)"/></clipPath><clipPath id="j"><path d="M260.306,68.3a2.085,2.085,0,0,1-2.083,2.238l-2.651,0-23.312-.009a1.089,1.089,0,0,1-.943-1.634l11.464-19.981,1.526-2.5a2.086,2.086,0,0,1,2.979-.682A30.077,30.077,0,0,1,260.306,68.3Z" transform="translate(-231.169 -45.377)"/></clipPath><clipPath id="k"><path d="M253.333,89.841l-22.163-.007v0L242.19,70.61a22.337,22.337,0,0,1,8.173,8.149A22.045,22.045,0,0,1,253.333,89.841Z" transform="translate(-231.17 -70.61)"/></clipPath></defs><g transform="translate(-21.83 -39.773)"><g transform="translate(21.83 39.774)"><path d="M79.684,69.795a2.089,2.089,0,0,1,2.083,2.249,30.008,30.008,0,1,1-16.9-29.293,2.074,2.074,0,0,1,.705,3.129L51.843,69.786l25.2.007Z" transform="translate(-21.83 -39.774)" fill="#ffab00"/><g clip-path="url(#a)"><path d="M86.123,75.94a28.907,28.907,0,0,0-1.311-8.607,28.76,28.76,0,0,0-9.32-13.709A29.2,29.2,0,0,0,68.2,49.306,28.69,28.69,0,0,0,40.43,52.722a29.342,29.342,0,0,0-6.413,6.463,28.7,28.7,0,0,0-.029,33.47A28.882,28.882,0,0,0,47.14,102.809,28.732,28.732,0,0,0,85.791,80.291a30.319,30.319,0,0,0,.332-4.351.721.721,0,0,0-1.441,0,26.9,26.9,0,0,1-1.259,8.223q-.3.966-.676,1.908c-.227.572-.478,1.142-.784,1.769a27.835,27.835,0,0,1-2.041,3.513q-.281.411-.575.812c-.1.139-.206.276-.308.413-.072.1.007-.007-.067.087-.06.078-.121.155-.182.231q-.63.79-1.316,1.533a28.3,28.3,0,0,1-2.914,2.741c-.509.415-.945.743-1.527,1.151-.554.388-1.123.754-1.7,1.1s-1.179.673-1.785.977q-.465.233-.938.449c-.31.141-.588.261-.821.355a27.848,27.848,0,0,1-3.931,1.275q-1.02.249-2.054.42c-.164.027-.328.052-.494.078-.215.031-.254.036-.42.058-.359.045-.72.083-1.078.114a28.226,28.226,0,0,1-4.278.043,25.65,25.65,0,0,1-4.076-.582,27.887,27.887,0,0,1-3.966-1.2c-.642-.247-1.122-.453-1.778-.766q-.9-.43-1.774-.923a27.542,27.542,0,0,1-8.789-7.909,28.01,28.01,0,0,1-2.09-3.435A25.025,25.025,0,0,1,31.5,84.7a27.793,27.793,0,0,1-1.03-4.034c-.132-.743-.2-1.252-.272-1.985q-.1-1.071-.126-2.148-.024-1.15.045-2.3c.043-.712.124-1.529.215-2.153a27.919,27.919,0,0,1,1.012-4.42,25.96,25.96,0,0,1,1.643-4.023A27.294,27.294,0,0,1,55.136,48.724a28.537,28.537,0,0,1,4.824.029c.346.032.694.07,1.039.115.128.016-.09-.013.038.005l.114.016c.088.013.179.025.267.04.177.027.353.056.53.085q1.033.176,2.05.431a26.572,26.572,0,0,1,7.423,3.076c.579.348,1.147.718,1.7,1.105.588.413,1,.725,1.522,1.156a28.039,28.039,0,0,1,2.927,2.779,25.673,25.673,0,0,1,2.411,3.057,28.19,28.19,0,0,1,2.027,3.522,25.8,25.8,0,0,1,1.457,3.72,27.923,27.923,0,0,1,.929,4.074c.05.343.072.5.114.88q.057.5.094,1.006.078,1.058.079,2.121A.723.723,0,0,0,86.123,75.94Z" transform="translate(-27.403 -45.855)" fill="#fad383"/></g></g><g transform="translate(27.429 45.357)"><path d="M101.705,95.17A24.411,24.411,0,1,1,89.45,73.993L77.293,95.163Z" transform="translate(-52.88 -70.734)" fill="#ffd917"/><g transform="translate(0 0)" clip-path="url(#b)"><circle cx="3.755" cy="3.755" r="3.755" transform="translate(11.136 25.518)" fill="#a73f1b"/></g><g transform="translate(0 0)" clip-path="url(#b)"><circle cx="3.755" cy="3.755" r="3.755" transform="translate(14.07 9.422)" fill="#a73f1b"/></g><g transform="translate(0 0)" clip-path="url(#b)"><circle cx="3.755" cy="3.755" r="3.755" transform="translate(24.414 1.703)" fill="#a73f1b"/></g><g transform="translate(0 0)" clip-path="url(#b)"><circle cx="3.755" cy="3.755" r="3.755" transform="translate(24.771 39.563)" fill="#a73f1b"/></g><g transform="translate(0 0)" clip-path="url(#b)"><circle cx="3.755" cy="3.755" r="3.755" transform="translate(31.71 20.586)" fill="#a73f1b"/></g><g transform="translate(0 0)" clip-path="url(#b)"><circle cx="3.755" cy="3.755" r="3.755" transform="translate(43.253 26.797)" fill="#a73f1b"/></g><g transform="translate(0 0)" clip-path="url(#b)"><circle cx="3.755" cy="3.755" r="3.755" transform="translate(1.82 34.225)" fill="#a73f1b"/></g><g transform="translate(0 0)" clip-path="url(#b)"><circle cx="3.755" cy="3.755" r="3.755" transform="translate(-2.088 15.003)" fill="#a73f1b"/></g></g><path d="M51.683,205.118h2.436l5.827,0,7.046,0,6.108,0h2a8.891,8.891,0,0,0,.956,0,.321.321,0,0,1,.041,0l-.191-.079,0,0a.27.27,0,0,0,.382-.382c-.159-.159-.6-.081-.793-.081H73.744l-5.8,0-7.087,0-6.144,0c-.994,0-1.993-.036-2.986,0h-.043a.271.271,0,0,0,0,.541Z" transform="translate(-24.255 -135.071)" fill="#ffab00"/><path d="M122.809,93.13q-1.4-2.418-2.79-4.837c-.132-.229-.265-.458-.4-.689a.27.27,0,0,0-.467.272q1.4,2.418,2.79,4.837c.132.229.265.458.4.689a.27.27,0,0,0,.467-.272Z" transform="translate(-79.743 -39.098)" fill="#ffab00"/><path d="M171.5,177.529q-1.058-1.837-2.117-3.672Q167.7,170.93,166.01,168q-.39-.674-.777-1.349a.27.27,0,0,0-.467.272q1.058,1.837,2.117,3.672,1.688,2.927,3.378,5.854.39.674.777,1.349a.271.271,0,0,0,.467-.272Z" transform="translate(-117.128 -103.893)" fill="#ffab00"/><path d="M219.526,260.789l-.774-1.34-1.856-3.217-2.234-3.872L212.72,249c-.314-.543-.606-1.109-.945-1.637a.148.148,0,0,1-.013-.023.27.27,0,0,0-.467.272l.774,1.34,1.856,3.217,2.234,3.872L218.1,259.4c.314.543.606,1.109.945,1.637a.146.146,0,0,1,.013.023.271.271,0,0,0,.467-.272Z" transform="translate(-155.267 -170.024)" fill="#ffab00"/><path d="M119.542,252.817l.882-1.526q1.052-1.823,2.106-3.645,1.274-2.2,2.546-4.409l2.213-3.83c.357-.619.743-1.228,1.075-1.859l.014-.025a.27.27,0,0,0-.467-.272l-.882,1.526q-1.052,1.823-2.106,3.645-1.274,2.2-2.546,4.409l-2.213,3.83c-.357.619-.743,1.228-1.075,1.859l-.014.025a.27.27,0,0,0,.467.272Z" transform="translate(-79.677 -161.758)" fill="#ffab00"/><g transform="translate(59.581 40.784)"><path d="M260.306,68.3a2.085,2.085,0,0,1-2.083,2.238l-2.651,0-23.312-.009a1.089,1.089,0,0,1-.943-1.634l11.464-19.981,1.526-2.5a2.086,2.086,0,0,1,2.979-.682A30.077,30.077,0,0,1,260.306,68.3Z" transform="translate(-231.169 -45.377)" fill="#ffab00"/><g transform="translate(0 0)" clip-path="url(#j)"><path d="M121.4,53.19a28.951,28.951,0,0,0-10.717-22.5,29.444,29.444,0,0,0-7.35-4.351,28.919,28.919,0,0,0-28,3.443A29.5,29.5,0,0,0,68.873,36.3a28.942,28.942,0,0,0-.031,33.746A29.141,29.141,0,0,0,82.1,80.279a28.857,28.857,0,0,0,8.535,1.839,29.176,29.176,0,0,0,8.813-.8,28.963,28.963,0,0,0,21.62-23.739,30.832,30.832,0,0,0,.332-4.388.721.721,0,0,0-1.441,0,27.173,27.173,0,0,1-1.27,8.294q-.306.974-.682,1.922c-.229.579-.483,1.154-.792,1.785a28.287,28.287,0,0,1-2.058,3.542c-.188.276-.382.548-.579.819-.1.139-.207.278-.312.415-.072.094,0,0-.069.088l-.184.233q-.636.8-1.327,1.545a28.554,28.554,0,0,1-2.938,2.763c-.512.418-.956.752-1.542,1.161-.559.39-1.132.761-1.719,1.109s-1.188.678-1.8.985c-.312.157-.628.307-.947.453s-.591.263-.828.359a28.076,28.076,0,0,1-3.964,1.286q-1.028.252-2.072.424c-.707.117-1.255.186-2.011.251a28.946,28.946,0,0,1-4.314.045,25.613,25.613,0,0,1-4.11-.588,28.114,28.114,0,0,1-4-1.208,27.565,27.565,0,0,1-3.585-1.7A27.671,27.671,0,0,1,67.892,65.725a25.535,25.535,0,0,1-1.565-3.7,27.973,27.973,0,0,1-1.039-4.068c-.132-.747-.2-1.266-.274-2q-.105-1.079-.126-2.166-.024-1.16.045-2.319.035-.573.092-1.147c.036-.355.083-.739.124-1.026A27.614,27.614,0,0,1,79.981,28.608a27.273,27.273,0,0,1,10.182-2.873,28.653,28.653,0,0,1,4.865.031c.754.069,1.271.137,2.007.263q1.041.179,2.068.435a26.818,26.818,0,0,1,7.486,3.1q.876.527,1.713,1.116c.59.415,1.006.732,1.536,1.167a28.52,28.52,0,0,1,2.952,2.8,25.986,25.986,0,0,1,2.433,3.084,28.2,28.2,0,0,1,2.043,3.551,25.916,25.916,0,0,1,1.47,3.753,28.1,28.1,0,0,1,.936,4.108c.052.344.072.507.115.889.038.337.069.676.094,1.013.054.711.079,1.425.079,2.137A.721.721,0,0,0,121.4,53.19Z" transform="translate(-93.687 -28.023)" fill="#fad383"/></g></g><g transform="translate(59.581 45.334)"><path d="M253.333,89.841l-22.163-.007v0L242.19,70.61a22.337,22.337,0,0,1,8.173,8.149A22.045,22.045,0,0,1,253.333,89.841Z" transform="translate(-231.17 -70.61)" fill="#ffd917"/><g transform="translate(0 0)" clip-path="url(#k)"><circle cx="3.755" cy="3.755" r="3.755" transform="translate(8.512 3.72)" fill="#a73f1b"/></g><g transform="translate(0 0)" clip-path="url(#k)"><circle cx="3.755" cy="3.755" r="3.755" transform="translate(6.566 15.476)" fill="#a73f1b"/></g></g><circle cx="2.146" cy="2.146" r="2.146" transform="translate(63.436 80.694)" fill="#fdec95"/><circle cx="2.233" cy="2.233" r="2.233" transform="translate(45.196 85.206)" fill="#fdec95"/><circle cx="2.106" cy="2.106" r="2.106" transform="translate(31.939 72.318)" fill="#fdec95"/><circle cx="1.69" cy="1.69" r="1.69" transform="translate(50.153 77.446)" fill="#fdec95"/><circle cx="1.571" cy="1.571" r="1.571" transform="translate(39.237 64.816)" fill="#fdec95"/><circle cx="2.133" cy="2.133" r="2.133" transform="translate(34.044 55.473)" fill="#fdec95"/><circle cx="1.87" cy="1.87" r="1.87" transform="translate(43.67 48.25)" fill="#fdec95"/><circle cx="1.336" cy="1.336" r="1.336" transform="translate(59.963 76.11)" fill="#fdec95"/><circle cx="1.336" cy="1.336" r="1.336" transform="translate(52.196 60.809)" fill="#fdec95"/><circle cx="1.87" cy="1.87" r="1.87" transform="translate(75.699 58.706)" fill="#fdec95"/><circle cx="1.515" cy="1.515" r="1.515" transform="translate(65.783 56.652)" fill="#fdec95"/></g></svg>