<svg xmlns="http://www.w3.org/2000/svg" xmlns:xlink="http://www.w3.org/1999/xlink" width="60.612" height="60.687" viewBox="0 0 60.612 60.687"><defs><clipPath id="a"><path d="M75.735,72.562c16.682-1.475,27.444-8.72,27.658-15.672.037-1.22-.175-4.865-5.729-9.464A12.211,12.211,0,0,0,94.839,39.7a10.6,10.6,0,0,0-8.12-3.643,15.2,15.2,0,0,0-21.969,0,10.575,10.575,0,0,0-8.087,3.6A12.22,12.22,0,0,0,53.8,47.426c-5.951,4.98-6.034,8.907-5.978,10.035C48.166,64.47,59.037,71.65,75.735,72.562Z" transform="translate(-47.818 -31.359)"/></clipPath><clipPath id="b"><path d="M54.614,282.528c-.306.779,6.475,5.559,6.475,5.559-3.334,1.6-8.645,1.187-14.483-1.612-5.415-2.6-10.4-7.919-10.066-9.468.336-1.573,3.2-3.418,8.766-1.052C50.482,278.15,52.792,281.341,54.614,282.528Z" transform="translate(-36.525 -274.826)"/></clipPath><clipPath id="c"><path d="M234.693,286.405c.306.779-6.573,5.26-6.573,5.26,3.334,1.6,8.645,1.187,14.483-1.612,5.415-2.6,10.3-7.4,10.162-8.9-.188-2.005-4.821-3.07-9.206-.759C236.421,284.162,236.517,285.216,234.693,286.405Z" transform="translate(-228.12 -279.09)"/></clipPath><clipPath id="d"><path d="M148.007,284.366c-1.9,3.894-7.535,10.1-15.051,10.1-9.086,0-14.464-7.332-15.786-10.159a5.544,5.544,0,0,0,4.4.146c2.435-1,5.273-3.726,9.972-4C140.683,279.9,141.08,286.223,148.007,284.366Z" transform="translate(-117.17 -280.411)"/></clipPath></defs><g transform="translate(-34.943 -29.854)"><g transform="translate(37.32 30.132)"><path d="M75.735,72.562c16.682-1.475,27.444-8.72,27.658-15.672.037-1.22-.175-4.865-5.729-9.464A12.211,12.211,0,0,0,94.839,39.7a10.6,10.6,0,0,0-8.12-3.643,15.2,15.2,0,0,0-21.969,0,10.575,10.575,0,0,0-8.087,3.6A12.22,12.22,0,0,0,53.8,47.426c-5.951,4.98-6.034,8.907-5.978,10.035C48.166,64.47,59.037,71.65,75.735,72.562Z" transform="translate(-47.818 -31.359)" fill="#d2eac3"/><g transform="translate(0 0)" clip-path="url(#a)"><path d="M105.889,86.081c1.274-1.94,5.934-9.309,5.258-14.619a13.37,13.37,0,0,0-.275-1.442,13.544,13.544,0,0,0-5.2-7.328,11.913,11.913,0,0,0-2.537-7.293,9.285,9.285,0,0,0-7.293-3.436,13.206,13.206,0,0,0-19.73,0,9.272,9.272,0,0,0-7.263,3.4,11.908,11.908,0,0,0-2.566,7.328,15.059,15.059,0,0,0-5.975,8.574c-1.939,8,4.13,14.147,4.477,14.486" transform="translate(-57.69 -44.549)" fill="#b8d8a3"/></g></g><path d="M74.513,71.63a57.4,57.4,0,0,0,12.4-2.409,35.179,35.179,0,0,0,9.1-4.272,16.659,16.659,0,0,0,5.306-5.406,8.088,8.088,0,0,0,1.062-5.155c-.43-2.84-2.374-5.3-4.4-7.217-.43-.408-.877-.8-1.335-1.18l.087.209a12.553,12.553,0,0,0-1.968-6.686,10.91,10.91,0,0,0-6.948-4.756,10.235,10.235,0,0,0-2.325-.225l.209.087a16.746,16.746,0,0,0-6.913-4.139A15.251,15.251,0,0,0,66.586,32.07a16.789,16.789,0,0,0-3.266,2.548l.209-.087a10.823,10.823,0,0,0-5.386,1.342,11.447,11.447,0,0,0-5.465,7.315A12.739,12.739,0,0,0,52.29,46.2l.087-.209c-2.511,2.109-4.985,4.782-5.821,8.046a7.719,7.719,0,0,0,.419,4.994,14.359,14.359,0,0,0,4.771,5.633,30.974,30.974,0,0,0,8.766,4.418A51.708,51.708,0,0,0,72.8,71.512c.569.048,1.141.087,1.712.118.378.02.378-.569,0-.591a55.5,55.5,0,0,1-10.552-1.558,38.424,38.424,0,0,1-8.29-3.067,22.161,22.161,0,0,1-5.733-4.1,10.7,10.7,0,0,1-2.818-4.658,6.9,6.9,0,0,1,.078-3.731,14.9,14.9,0,0,1,4.335-6.4c.354-.336.72-.661,1.093-.977.148-.126.246-.2.255-.4,0-.063,0-.124,0-.186a11.8,11.8,0,0,1,.1-1.224,12.1,12.1,0,0,1,1.174-3.864,10.407,10.407,0,0,1,6.916-5.493,9.888,9.888,0,0,1,2.3-.27.489.489,0,0,0,.4-.118c.1-.092.2-.192.294-.286q.424-.4.875-.772a15.524,15.524,0,0,1,7.179-3.32,14.6,14.6,0,0,1,8.973,1.407,16.751,16.751,0,0,1,2.769,1.75c.493.384.929.825,1.4,1.232.194.166.515.105.761.114a9.406,9.406,0,0,1,1.161.114,10.571,10.571,0,0,1,3.442,1.171,10.968,10.968,0,0,1,5.284,7.542,12.486,12.486,0,0,1,.2,1.5c.013.174.02.347.026.521,0,.063,0,.126,0,.188.013.225.179.318.34.454a20.305,20.305,0,0,1,3.46,3.659,9.477,9.477,0,0,1,1.929,4.933,7.836,7.836,0,0,1-1.22,4.3,15.715,15.715,0,0,1-4.282,4.461,31.2,31.2,0,0,1-7.079,3.776,49.851,49.851,0,0,1-9.435,2.585q-2.656.468-5.345.7C74.138,71.074,74.134,71.663,74.513,71.63Z" transform="translate(-9.276 0)" fill="#2e6d38"/><g transform="translate(35.744 68.508)"><path d="M98.126,249.8c-6.878,2.313-16.887,3.77-28.031,3.77-12.756,0-24.026-1.909-30.815-4.828,4.261-5.556,15.666-9.529,29.065-9.529C82.582,239.21,94.565,243.7,98.126,249.8Z" transform="translate(-39.28 -239.21)" fill="#2d6e39"/></g><path d="M105.028,169.4a28.3,28.3,0,0,0,3.816,5.321,35.536,35.536,0,0,0,6.423,5.522,45.521,45.521,0,0,0,5.005,2.932c.338.172.637-.338.3-.51a41.719,41.719,0,0,1-8.1-5.268,31.021,31.021,0,0,1-5.1-5.408,26.632,26.632,0,0,1-1.839-2.89c-.181-.332-.691-.035-.508.3Z" transform="translate(-57.113 -113.417)" fill="#2e6d38"/><path d="M91.834,129.155a18.235,18.235,0,0,0,.844,3.92c.124.356.694.2.569-.157a17.625,17.625,0,0,1-.822-3.763.3.3,0,0,0-.3-.3.3.3,0,0,0-.3.3Z" transform="translate(-46.386 -80.727)" fill="#2e6d38"/><path d="M140.318,70.8c-1.172,2-1.171,4.555-.932,6.783a30.023,30.023,0,0,0,.626,3.593c.087.369.655.212.569-.157a24.023,24.023,0,0,1-.72-5.593,10.344,10.344,0,0,1,.491-3.288,5.322,5.322,0,0,1,.476-1.043.3.3,0,0,0-.51-.3Z" transform="translate(-85.057 -33.269)" fill="#2e6d38"/><path d="M216.744,70.422a4.782,4.782,0,0,1,.412.751c.009.018.017.039.024.057-.007-.018-.026-.063,0-.006s.035.089.054.133c.033.085.065.172.092.258.066.2.124.4.174.6.055.231.1.463.14.7l.028.179c0,.02.018.129.006.039.006.039.011.079.015.118.017.138.031.275.042.414a15.625,15.625,0,0,1,.033,1.972,28.473,28.473,0,0,1-.873,5.567,64.055,64.055,0,0,1-2.668,8.163c-1.5,3.818-3.246,7.537-5.1,11.194q-.41.809-.827,1.61c-.175.336.334.635.51.3,1.992-3.837,3.87-7.738,5.506-11.741a70.027,70.027,0,0,0,2.949-8.574,32.4,32.4,0,0,0,1.067-5.978,14.079,14.079,0,0,0-.185-3.8,6.4,6.4,0,0,0-.783-2.1c-.033-.052-.066-.1-.1-.155-.21-.314-.722-.02-.508.3Z" transform="translate(-141.312 -32.728)" fill="#2e6d38"/><path d="M222.066,183.382a39.5,39.5,0,0,1-9.577,8.635c-1.331.883-2.7,1.7-4.1,2.474-.332.183-.035.692.3.51a54.627,54.627,0,0,0,6.915-4.479,40.281,40.281,0,0,0,4.933-4.435q1.077-1.155,2.042-2.408a.3.3,0,0,0-.105-.4.306.306,0,0,0-.4.107Z" transform="translate(-141.303 -125.062)" fill="#2e6d38"/><path d="M297.529,129.369a13.859,13.859,0,0,1-.506,2.382,20.673,20.673,0,0,1-1.693,4c-.181.334.327.631.51.3a18.271,18.271,0,0,0,2.278-6.674c.041-.377-.548-.373-.589,0Z" transform="translate(-212.28 -80.912)" fill="#2e6d38"/><path d="M98.49,270.732c1.87,1.483-1.963,3.4-3.1,1.309.292.244.3.273.03.091-.14-.1-.277-.2-.41-.307a1.986,1.986,0,0,0-.264-.168,1.588,1.588,0,0,0-1.028.052,11.92,11.92,0,0,0-2.579,1.3c-2.1,1.217-4.265,2.505-6.732,2.71a12.014,12.014,0,0,1-6.135-1.35,29.458,29.458,0,0,0-4.623-2.251c-3.307-1.008-6.99.028-9.978,1.771-1.9,1.106-3.761,2.266-6.017,2.378a8.682,8.682,0,0,1-5.718-2.2,16.951,16.951,0,0,0-4.32-2.7c-1.307-.488-2.934-1-4.025-.19h0c-.807.6-3.262-.109-2.533-.665a35.9,35.9,0,0,1,4.948-3.388,11.826,11.826,0,0,1,2.1.495,19.509,19.509,0,0,1,5.838,3.357c1.566,1.195,3.024,2,5,1.276,1.929-.711,3.589-2.1,5.491-2.906a15.13,15.13,0,0,1,11.521-.314c1.852.77,3.538,2.068,5.465,2.616a7.711,7.711,0,0,0,2.995.366,8.55,8.55,0,0,0,2.83-1.062c1.828-.973,3.6-2.315,5.626-2.854a5.626,5.626,0,0,1,1.815-.192A43.887,43.887,0,0,1,98.49,270.732Z" transform="translate(-4.879 -193.467)" fill="#1b5326"/><circle cx="10.511" cy="10.511" r="10.511" transform="translate(54.419 52.533)" fill="#fff"/><path d="M222.368,215.734l-1.178-1.422a6.879,6.879,0,0,0,2.5-5.312h1.846A8.735,8.735,0,0,1,222.368,215.734Z" transform="translate(-151.86 -146.07)" fill="#b8d8a3"/><path d="M151.856,171.762H150.01a8.752,8.752,0,0,1,8.742-8.742v1.846A6.9,6.9,0,0,0,151.856,171.762Z" transform="translate(-93.822 -108.579)" fill="#b8d8a3"/><g transform="translate(35.235 75.084)"><path d="M54.614,282.528c-.306.779,6.475,5.559,6.475,5.559-3.334,1.6-8.645,1.187-14.483-1.612-5.415-2.6-10.4-7.919-10.066-9.468.336-1.573,3.2-3.418,8.766-1.052C50.482,278.15,52.792,281.341,54.614,282.528Z" transform="translate(-36.525 -274.826)" fill="#d2eac3"/><g transform="translate(0)" clip-path="url(#b)"><path d="M55.229,291.927c2.284.938,11,7.3,11,7.3-3.334,1.6-11.021,1.867-16.859-.932-5.415-2.6-10.4-7.919-10.066-9.468.336-1.573,2.723-3.493,8.2-.921C52.457,290.234,53.152,291.382,55.229,291.927Z" transform="translate(-38.775 -284.467)" fill="#b8d8a3"/></g></g><g transform="translate(70.61 75.871)"><path d="M234.693,286.405c.306.779-6.573,5.26-6.573,5.26,3.334,1.6,8.645,1.187,14.483-1.612,5.415-2.6,10.3-7.4,10.162-8.9-.188-2.005-4.821-3.07-9.206-.759C236.421,284.162,236.517,285.216,234.693,286.405Z" transform="translate(-228.12 -279.09)" fill="#d2eac3"/><g clip-path="url(#c)"><path d="M229.54,295.3l-10.02,6.322a20.31,20.31,0,0,0,16.072-.24c5.415-2.6,10.3-7.4,10.162-8.9-.188-2.005-4.6-3.462-9.206-.759A50.845,50.845,0,0,1,229.54,295.3Z" transform="translate(-221.108 -288.191)" fill="#b8d8a3"/></g></g><g transform="translate(50.125 76.115)"><path d="M148.007,284.366c-1.9,3.894-7.535,10.1-15.051,10.1-9.086,0-14.464-7.332-15.786-10.159a5.544,5.544,0,0,0,4.4.146c2.435-1,5.273-3.726,9.972-4C140.683,279.9,141.08,286.223,148.007,284.366Z" transform="translate(-117.17 -280.411)" fill="#d2eac3"/><g transform="translate(0 0)" clip-path="url(#d)"><path d="M147.347,299.336c-1.9,3.894-7.535,10.1-15.051,10.1-9.086,0-14.464-7.332-15.786-10.159a5.544,5.544,0,0,0,4.4.146c2.435-1,5.273-3.726,9.972-4C140.023,294.873,140.42,301.193,147.347,299.336Z" transform="translate(-116.632 -292.617)" fill="#b8d8a3"/></g></g><path d="M58.876,296.922a12.444,12.444,0,0,1-5.2.5,23.05,23.05,0,0,1-6.388-1.63,26.743,26.743,0,0,1-9.976-6.959,11.417,11.417,0,0,1-1.37-1.819,3.613,3.613,0,0,1-.336-.707,1.588,1.588,0,0,1-.044-.161c-.006-.028-.028-.166-.02-.094-.006-.044,0-.089-.007-.135,0-.013,0-.028,0-.042,0-.055-.013.063,0-.02.074-.371-.495-.53-.569-.157a2.054,2.054,0,0,0,.282,1.281,9.081,9.081,0,0,0,1.108,1.641,24.584,24.584,0,0,0,4.019,3.853,26.923,26.923,0,0,0,5.7,3.445,25.277,25.277,0,0,0,6.776,2,13.485,13.485,0,0,0,6.18-.428c.356-.126.2-.694-.157-.57Z" transform="translate(0 -208.436)" fill="#2e6d38"/><path d="M233.525,300.308a13.52,13.52,0,0,0,5.3.36,24.034,24.034,0,0,0,6.449-1.715,29.919,29.919,0,0,0,5.8-3.166,28.363,28.363,0,0,0,4.322-3.65,11.789,11.789,0,0,0,1.433-1.771,2.333,2.333,0,0,0,.478-1.326c-.03-.377-.62-.379-.591,0,0,.033,0,.066,0,.1a.526.526,0,0,1,0,.054c0,.046.013-.074,0,0a1.836,1.836,0,0,1-.07.257,3.313,3.313,0,0,1-.284.556,9.717,9.717,0,0,1-1.115,1.433,26.182,26.182,0,0,1-3.983,3.5A27.267,27.267,0,0,1,239.461,300a13.5,13.5,0,0,1-5.779-.255.293.293,0,0,0-.157.565Z" transform="translate(-161.748 -211.101)" fill="#2e6d38"/><path d="M255.487,300.794a18.739,18.739,0,0,1-4.219,5.469,20.106,20.106,0,0,1-1.839,1.494c-.306.22-.011.731.3.51a20.913,20.913,0,0,0,5.408-5.655,14.631,14.631,0,0,0,.86-1.518c.168-.342-.34-.641-.508-.3Z" transform="translate(-174.78 -220.793)" fill="#2e6d38"/><path d="M120.812,306.277a18.228,18.228,0,0,1-4.649-5.838c-.161-.343-.67-.044-.51.3a15.262,15.262,0,0,0,1.676,2.688,21.228,21.228,0,0,0,3.065,3.268c.286.249.705-.166.417-.415Z" transform="translate(-65.784 -220.502)" fill="#2e6d38"/><path d="M176.57,347.3a14.266,14.266,0,0,1-4.943,1.256,15.582,15.582,0,0,1-5.107-.547,16.274,16.274,0,0,1-2.518-.929c-.342-.159-.643.349-.3.51a15.966,15.966,0,0,0,10.332,1.2,15.708,15.708,0,0,0,2.832-.979c.343-.155.044-.665-.3-.51Z" transform="translate(-104.864 -258.628)" fill="#2e6d38"/></g></svg>