<svg xmlns="http://www.w3.org/2000/svg" xmlns:xlink="http://www.w3.org/1999/xlink" width="66.547" height="65.867" viewBox="0 0 66.547 65.867"><defs><clipPath id="a"><path d="M95.341,208.723s2.333-8.891-2.994-16.883c-5.035-7.552-11.891-11.838-30.422-13.1-4.773-.326-14.532-1.128-17.346-2.06-5.215-1.729-.541-3.7.657-4.287l-11.108-.006a19.722,19.722,0,0,0-2.384,1.258,4.674,4.674,0,0,0-1.727,4.876c.92,4.864,8.994,5.513,19.506,8.11,3.37.831,11.519,2.566,12.734,9.292a12.259,12.259,0,0,1-5.784,12.8H95.341Z" transform="translate(-29.886 -172.39)"/></clipPath><clipPath id="b"><path d="M134.289,53.107l-.209,14.768a.668.668,0,0,0,.6.721A80.147,80.147,0,0,0,151.6,67.513l-5.835-5.967,4.066-9.087C142.372,54.018,140.23,53.173,134.289,53.107Z" transform="translate(-134.08 -52.46)"/></clipPath><clipPath id="c"><path d="M82.718,26.188,82.4,43.309c6.11.277,15.171-3.25,16.7-1.736V26.361C99.1,22.35,87.181,27.028,82.718,26.188Z" transform="translate(-82.4 -24.712)"/></clipPath></defs><g transform="translate(-28.155 -24.712)"><g transform="translate(28.491 53.33)"><path d="M95.341,208.723s2.333-8.891-2.994-16.883c-5.035-7.552-11.891-11.838-30.422-13.1-4.773-.326-14.532-1.128-17.346-2.06-5.215-1.729-.541-3.7.657-4.287l-11.108-.006a19.722,19.722,0,0,0-2.384,1.258,4.674,4.674,0,0,0-1.727,4.876c.92,4.864,8.994,5.513,19.506,8.11,3.37.831,11.519,2.566,12.734,9.292a12.259,12.259,0,0,1-5.784,12.8H95.341Z" transform="translate(-29.886 -172.39)" fill="#dcdcdc"/><g transform="translate(0)" clip-path="url(#a)"><path d="M98.716,187.681s2.48-8.232-3.521-16.976a21.893,21.893,0,0,0-8.463-7.193c-5.213-2.647-12.5-4.273-23.1-4.98-3.015-.2-6.591-.508-9.623-1.033-2.5-.432-7.267-1.145-7.856-3.07-.82-2.676,5.213-4.116,7.4-5.31a13.075,13.075,0,0,0,3.225-2.791L51.5,146.29c-3.281.936-5.428,3.015-8.329,4.209a20.449,20.449,0,0,0-4.678,2.457c-2.676,1.946-2.157,3.926-1.7,4.819,1.079,2.116,3.816,3.182,8,4.277,2.947.771,7.044,1.655,11.557,2.68,3.734.849,10.567,2.773,12.491,8.846C70.908,180.1,67,186.09,64.856,187.735Z" transform="translate(-35.16 -151.348)" fill="#929292"/></g></g><path d="M94.214,170.9a16.024,16.024,0,0,0-2.2,1.17,2.332,2.332,0,0,0-1.18,1.475c-.109.946.907,1.5,1.645,1.81a15.063,15.063,0,0,0,2.765.789c1.232.254,2.477.438,3.725.6,2.719.351,5.453.57,8.187.764,2.6.184,5.2.327,7.8.6a65.057,65.057,0,0,1,9.778,1.709,34.247,34.247,0,0,1,7.275,2.75,23.9,23.9,0,0,1,5.327,3.8,25.647,25.647,0,0,1,4.161,5.159,22.636,22.636,0,0,1,2.74,15.605c-.019.093-.039.186-.06.277a.31.31,0,0,0,.6.165,18.614,18.614,0,0,0,.453-4.1,23.2,23.2,0,0,0-1.641-9.166,24.337,24.337,0,0,0-4.42-6.934,24.033,24.033,0,0,0-4.845-4.166A29.58,29.58,0,0,0,127.8,180.1a50.645,50.645,0,0,0-8.755-2.077c-3.037-.473-6.1-.744-9.162-.948-2.556-.171-5.11-.341-7.66-.587a55.853,55.853,0,0,1-7.585-1.108,9.711,9.711,0,0,1-2.4-.816c-.072-.039-.141-.079-.209-.124-.027-.017-.056-.037-.083-.056s-.107-.079-.058-.041a1.155,1.155,0,0,1-.421-.523c-.163-.537.554-1.01.92-1.254a16.771,16.771,0,0,1,2.136-1.13c.362-.169.05-.7-.31-.535Z" transform="translate(-50.528 -117.837)" fill="#4f4f4f"/><path d="M55.288,207.175A10.3,10.3,0,0,0,58.7,204.1a12.678,12.678,0,0,0,2.444-6.189,10.75,10.75,0,0,0-1.389-6.988,11.8,11.8,0,0,0-4.525-3.887,25.2,25.2,0,0,0-5.238-1.951c-2.093-.554-4.221-.99-6.333-1.457-2.572-.57-5.157-1.12-7.678-1.889a15.446,15.446,0,0,1-5.149-2.37,5.061,5.061,0,0,1-2.058-4.114c.068-1.944,1.628-3.225,3.2-4.1.269-.149.545-.291.816-.438.349-.192.037-.727-.312-.535-1.461.8-3,1.626-3.812,3.159a5.023,5.023,0,0,0,.525,5.219,9.478,9.478,0,0,0,4.161,2.9,43.254,43.254,0,0,0,6.757,1.992c2.645.62,5.306,1.182,7.953,1.791a35.451,35.451,0,0,1,4.808,1.4,14.9,14.9,0,0,1,5.005,2.982A8.783,8.783,0,0,1,59.658,192a9.149,9.149,0,0,1,.884,3.343,12.138,12.138,0,0,1-1.461,7.029,11.423,11.423,0,0,1-3.387,3.841,6.139,6.139,0,0,1-.719.432c-.355.18-.041.715.314.535Z" transform="translate(0 -117.245)" fill="#4f4f4f"/><path d="M102.746,208.27a10.413,10.413,0,0,0,.975-2.473,24.107,24.107,0,0,0,.827-7.284,17.642,17.642,0,0,0-.543-4.261,12.717,12.717,0,0,0-1.513-3.411,15.266,15.266,0,0,0-5.376-4.974,27.442,27.442,0,0,0-3.953-1.785c-1.6-.6-3.228-1.12-4.876-1.568a86.812,86.812,0,0,0-9.488-1.934c-2.8-.434-5.614-.781-8.406-1.267a27.4,27.4,0,0,1-6.563-1.767,5.489,5.489,0,0,1-2.36-1.61,1.537,1.537,0,0,1,.031-1.8,5.744,5.744,0,0,1,1.606-1.572,15.243,15.243,0,0,1,1.585-.975,1.683,1.683,0,0,0,.331-.2c.3-.265-.141-.7-.438-.438.1-.089.017-.021-.035.008l-.227.122c-.238.13-.477.265-.709.405a10.561,10.561,0,0,0-1.86,1.384,3.52,3.52,0,0,0-1.159,1.9,2.37,2.37,0,0,0,1,2.174,10.113,10.113,0,0,0,2.711,1.455,23.253,23.253,0,0,0,3.161.948c2.57.6,5.193.948,7.8,1.324,3.066.44,6.131.9,9.162,1.543a57.644,57.644,0,0,1,9.788,2.938,17.553,17.553,0,0,1,6.306,4.149,12.5,12.5,0,0,1,3.207,6.639,23.741,23.741,0,0,1,.176,4.589,23.3,23.3,0,0,1-.438,3.664,17.55,17.55,0,0,1-.68,2.448,8.486,8.486,0,0,1-.5,1.163c-.025.048-.052.1-.079.145a.31.31,0,0,0,.535.314Z" transform="translate(-26.136 -117.838)" fill="#fff"/><g transform="translate(48.682 30.089)"><path d="M134.289,53.107l-.209,14.768a.668.668,0,0,0,.6.721A80.147,80.147,0,0,0,151.6,67.513l-5.835-5.967,4.066-9.087C142.372,54.018,140.23,53.173,134.289,53.107Z" transform="translate(-134.08 -52.46)" fill="#dc7550"/><g transform="translate(0 0)" clip-path="url(#b)"><path d="M110.1,49.067c3.79-.182,7.565.021,11.354,0a18.881,18.881,0,0,0,8.565-1.769,2.326,2.326,0,0,0-2.347-4.017c-.155.078-.312.151-.467.227-.324.159.324-.122-.008.008-.281.11-.564.213-.853.3a17.062,17.062,0,0,1-1.754.413c-.634.128.285-.027-.091.017-.138.017-.275.031-.413.047-.318.031-.636.056-.953.074-.715.041-1.434.05-2.151.048-3.632-.008-7.251-.172-10.885,0a2.325,2.325,0,1,0,0,4.651Z" transform="translate(-112.868 -44.825)" fill="#fcb196"/></g></g><path d="M139.84,106.915c-1.329-1.4-6.608-1.17-6.91-1.093l.223,5.1a.579.579,0,0,0,.678.607C135.658,111.043,141.2,108.346,139.84,106.915Z" transform="translate(-84.471 -65.342)" fill="#a73f1b"/><g transform="translate(38.667 24.712)"><path d="M82.718,26.188,82.4,43.309c6.11.277,15.171-3.25,16.7-1.736V26.361C99.1,22.35,87.181,27.028,82.718,26.188Z" transform="translate(-82.4 -24.712)" fill="#dc7550"/><g transform="translate(0 0)" clip-path="url(#c)"><path d="M60.562,24.043c3.9.771,7.736-.171,11.559-.938.87-.174,1.746-.347,2.626-.465-.448.06.151-.012.233-.021.225-.023.45-.045.674-.06.442-.031.886-.047,1.327-.041a10.757,10.757,0,0,1,1.3.083c-.287-.039-.176-.033.039.021.248.064.5.109.744.178.163.047.324.1.486.153.734.221-.209-.122.184.07a9.262,9.262,0,0,1,1.252.744,2.735,2.735,0,0,0,3.711-.973,2.769,2.769,0,0,0-.973-3.711c-3.451-2.415-7.707-2.178-11.652-1.477-1.858.331-3.694.775-5.554,1.087a15.442,15.442,0,0,1-2.261.236c-.438.017-.876.017-1.314-.006-.215-.012-.43-.027-.643-.05.484.052-.145-.035-.289-.062a2.781,2.781,0,0,0-3.337,1.9,2.732,2.732,0,0,0,1.891,3.335Z" transform="translate(-63.197 -18.598)" fill="#fcb196"/></g></g><path d="M80.928,32.034q-.009,1.331-.017,2.665-.02,3.2-.043,6.4-.026,3.857-.05,7.713-.023,3.334-.045,6.67c-.008,1.083-.054,2.174-.021,3.256v.047a.309.309,0,0,0,.618,0q.009-1.331.017-2.665.02-3.2.043-6.4.026-3.857.05-7.713.023-3.334.045-6.67c.008-1.083.054-2.174.021-3.256v-.047a.309.309,0,0,0-.618,0Z" transform="translate(-42.394 -5.662)" fill="#a73f1b"/></g></svg>