<svg xmlns="http://www.w3.org/2000/svg" xmlns:xlink="http://www.w3.org/1999/xlink" width="58.715" height="65.966" viewBox="0 0 58.715 65.966"><defs><clipPath id="a"><path d="M113.685,101.34h0l-1.507.908q-2.034,1.224-4.065,2.451-3.013,1.816-6.028,3.633l-7.354,4.431L86.7,117.6q-4.079,2.458-8.156,4.917Q74.771,124.793,71,127.07l-6.406,3.862q-2.3,1.389-4.607,2.775c-.725.438-1.455.868-2.178,1.312l-.1.058,2.158,3.581,1.507-.908q2.034-1.224,4.065-2.451,3.013-1.816,6.028-3.633l7.354-4.431,8.027-4.837q4.079-2.458,8.156-4.917,3.777-2.275,7.553-4.553l6.406-3.862q2.3-1.389,4.607-2.775c.725-.438,1.455-.868,2.178-1.312l.1-.058" transform="translate(-57.71 -101.34)"/></clipPath><clipPath id="f"><path d="M115.955,134.8h0l-1.5-.914q-2.031-1.23-4.059-2.463l-6.016-3.649-7.34-4.453q-4.007-2.431-8.013-4.859l-8.142-4.939-7.541-4.575q-3.2-1.941-6.394-3.88l-4.6-2.789c-.725-.44-1.445-.886-2.174-1.318-.032-.018-.064-.038-.1-.058l-2.168,3.573,1.5.914q2.031,1.23,4.059,2.463L69.49,111.5l7.34,4.453q4.007,2.431,8.013,4.859l8.142,4.939,7.541,4.575q3.2,1.941,6.394,3.88l4.6,2.789c.725.44,1.445.886,2.174,1.318.032.018.064.038.1.058" transform="translate(-57.91 -100.9)"/></clipPath><clipPath id="k"><path d="M193.266,30.95h0v62.7c0,.848-.008,1.694,0,2.542V96.3c0-.036,4.181,0,4.181,0V33.6c0-.848.008-1.694,0-2.542V30.95" transform="translate(-193.262 -30.95)"/></clipPath></defs><g transform="translate(-56.349 -29.415)"><g transform="translate(56.62 43.733)"><path d="M113.685,101.34h0l-1.507.908q-2.034,1.224-4.065,2.451-3.013,1.816-6.028,3.633l-7.354,4.431L86.7,117.6q-4.079,2.458-8.156,4.917Q74.771,124.793,71,127.07l-6.406,3.862q-2.3,1.389-4.607,2.775c-.725.438-1.455.868-2.178,1.312l-.1.058,2.158,3.581,1.507-.908q2.034-1.224,4.065-2.451,3.013-1.816,6.028-3.633l7.354-4.431,8.027-4.837q4.079-2.458,8.156-4.917,3.777-2.275,7.553-4.553l6.406-3.862q2.3-1.389,4.607-2.775c.725-.438,1.455-.868,2.178-1.312l.1-.058" transform="translate(-57.71 -101.34)" fill="#dc7550"/><g clip-path="url(#a)"><path d="M338.89,101.34" transform="translate(-282.915 -101.34)" fill="#752f00"/></g><g clip-path="url(#a)"><path d="M353.3,104.91" transform="translate(-294.456 -104.199)" fill="#752f00"/></g><g clip-path="url(#a)"><path d="M280.62,125.016c1.557-.94,2.548-3.432,4.22-2.717a15.351,15.351,0,0,1,2.379,4.093l-4.143,3-2.457-4.372" transform="translate(-236.245 -118.025)" fill="#a73f1b"/></g><g clip-path="url(#a)"><path d="M100.649,236.052c-1.557.94-2.548,3.432-4.22,2.717a15.389,15.389,0,0,1-2.379-4.093l4.143-3,2.457,4.372" transform="translate(-86.816 -205.733)" fill="#a73f1b"/></g><g clip-path="url(#a)"><path d="M289.406,140.15,283,144.012" transform="translate(-238.151 -132.424)" fill="#752f00"/></g></g><path d="M67.469,152.045,78.4,145.458q5.491-3.312,10.985-6.621l10.945-6.6,10.977-6.617q5.429-3.273,10.859-6.541c.426-.255.85-.518,1.276-.772a.318.318,0,0,0-.321-.549c-3.605,2.16-7.2,4.34-10.8,6.508l-10.987,6.623L90.4,137.481q-5.491,3.312-10.985,6.621l-10.9,6.571-1.366.824a.317.317,0,0,0,.32.547Z" transform="translate(-8.528 -70.719)" fill="#a73f1b"/><g transform="translate(56.66 43.646)"><path d="M115.955,134.8h0l-1.5-.914q-2.031-1.23-4.059-2.463l-6.016-3.649-7.34-4.453q-4.007-2.431-8.013-4.859l-8.142-4.939-7.541-4.575q-3.2-1.941-6.394-3.88l-4.6-2.789c-.725-.44-1.445-.886-2.174-1.318-.032-.018-.064-.038-.1-.058l-2.168,3.573,1.5.914q2.031,1.23,4.059,2.463L69.49,111.5l7.34,4.453q4.007,2.431,8.013,4.859l8.142,4.939,7.541,4.575q3.2,1.941,6.394,3.88l4.6,2.789c.725.44,1.445.886,2.174,1.318.032.018.064.038.1.058" transform="translate(-57.91 -100.9)" fill="#dc7550"/><g clip-path="url(#f)"><path d="M349.49,271.17" transform="translate(-291.445 -237.274)" fill="#752f00"/></g><g clip-path="url(#f)"><path d="M353.02,285.59" transform="translate(-294.272 -248.824)" fill="#752f00"/></g><g clip-path="url(#f)"><path d="M281.121,236.37c1.555.944,4.224.663,4.366,2.474a15.387,15.387,0,0,1-2.52,4.007l-4.577-2.277,2.731-4.2" transform="translate(-234.499 -209.402)" fill="#a73f1b"/></g><g clip-path="url(#f)"><path d="M98.8,128.612c-1.555-.944-4.224-.663-4.366-2.474a15.385,15.385,0,0,1,2.52-4.007l4.577,2.277-2.731,4.2" transform="translate(-87.16 -117.904)" fill="#a73f1b"/></g><g clip-path="url(#f)"><path d="M278.384,252.59q-3.2-1.941-6.394-3.88" transform="translate(-229.373 -219.285)" fill="#752f00"/></g></g><path d="M56.5,117.831l10.911,6.619L78.378,131.1q5.462,3.314,10.925,6.627l10.959,6.647q5.42,3.288,10.837,6.577c.424.259.852.512,1.278.772a.318.318,0,0,0,.321-.549q-5.381-3.282-10.78-6.539L90.95,137.985l-10.915-6.621q-5.482-3.326-10.965-6.651l-10.883-6.6c-.454-.277-.91-.551-1.364-.828a.318.318,0,0,0-.323.547Z" transform="translate(0 -70.337)" fill="#a73f1b"/><g transform="translate(83.604 29.721)"><path d="M193.266,30.95h0v62.7c0,.848-.008,1.694,0,2.542V96.3c0-.036,4.181,0,4.181,0V33.6c0-.848.008-1.694,0-2.542V30.95" transform="translate(-193.262 -30.95)" fill="#dc7550"/><g transform="translate(0 0)" clip-path="url(#k)"><path d="M193.28,30.95" transform="translate(-193.276 -30.95)" fill="#752f00"/></g><g transform="translate(0 0)" clip-path="url(#k)"><path d="M203.78,20.45" transform="translate(-201.686 -22.54)" fill="#752f00"/></g><g transform="translate(0 0)" clip-path="url(#k)"><path d="M190.191,78.188c0-1.818-1.624-3.954-.147-5.017a15.376,15.376,0,0,1,4.734.076l.428,5.094-5.015-.153" transform="translate(-190.188 -64.645)" fill="#a73f1b"/></g><g transform="translate(0 0)" clip-path="url(#k)"><path d="M194.265,290.253c0,1.818,1.624,3.954.147,5.017a15.377,15.377,0,0,1-4.734-.076l-.428-5.094,5.015.153" transform="translate(-190.049 -238.511)" fill="#a73f1b"/></g><g transform="translate(0 0)" clip-path="url(#k)"><path d="M214.28,71.29v7.479" transform="translate(-210.096 -63.259)" fill="#752f00"/></g></g><path d="M213.317,95.074V29.723a.319.319,0,0,0-.637,0V95.078a.319.319,0,0,0,.637,0Z" transform="translate(-125.21)" fill="#a73f1b"/><path d="M130.293,103.011a21.4,21.4,0,0,1-.185,2.765c.028-.211.058-.424.086-.635a20.571,20.571,0,0,1-1.433,5.23c.08-.191.161-.38.241-.571a20.73,20.73,0,0,1-2.644,4.519l.374-.484a20.876,20.876,0,0,1-3.725,3.725l.484-.374a20.752,20.752,0,0,1-4.581,2.67l.571-.241a20.607,20.607,0,0,1-5.168,1.407l.635-.086a20.894,20.894,0,0,1-5.528,0l.635.086a20.57,20.57,0,0,1-5.23-1.433l.571.241a20.732,20.732,0,0,1-4.519-2.644l.484.374a20.875,20.875,0,0,1-3.725-3.725l.374.484a20.751,20.751,0,0,1-2.67-4.581c.08.191.161.38.241.571a20.608,20.608,0,0,1-1.407-5.168c.028.211.058.424.086.635a20.894,20.894,0,0,1,0-5.528c-.028.211-.058.424-.086.635a20.569,20.569,0,0,1,1.433-5.23c-.08.191-.161.38-.241.571a20.73,20.73,0,0,1,2.644-4.519l-.374.484a20.875,20.875,0,0,1,3.725-3.725l-.484.374a20.751,20.751,0,0,1,4.581-2.67l-.571.241A20.609,20.609,0,0,1,110.056,85l-.635.086a20.894,20.894,0,0,1,5.528,0L114.314,85a20.57,20.57,0,0,1,5.23,1.433l-.571-.241a20.731,20.731,0,0,1,4.519,2.644l-.484-.374a20.875,20.875,0,0,1,3.725,3.725l-.374-.484a20.751,20.751,0,0,1,2.67,4.581c-.08-.191-.161-.38-.241-.571a20.609,20.609,0,0,1,1.407,5.168c-.028-.211-.058-.424-.086-.635a20.689,20.689,0,0,1,.185,2.763,2.472,2.472,0,0,0,.7,1.69,2.39,2.39,0,0,0,4.079-1.69,22.792,22.792,0,0,0-4.121-13.089,24.714,24.714,0,0,0-2.331-2.839,24.323,24.323,0,0,0-2.767-2.411,22.714,22.714,0,0,0-12.9-4.533A22.781,22.781,0,0,0,94.667,88.3a24.723,24.723,0,0,0-2.142,2.992A24.353,24.353,0,0,0,90.9,94.628a22.484,22.484,0,0,0-1.539,6.782,22.835,22.835,0,0,0,13.2,22.36,24.254,24.254,0,0,0,3.508,1.3,24.667,24.667,0,0,0,3.693.685,22.842,22.842,0,0,0,24.993-19.005,25.024,25.024,0,0,0,.319-3.739,2.466,2.466,0,0,0-.7-1.69,2.394,2.394,0,0,0-4.085,1.688Z" transform="translate(-26.39 -40.614)" fill="#dc7550"/><path d="M99.479,119.667a21.539,21.539,0,0,1-4.449-13.179,21.741,21.741,0,0,1,43.254-3.135l-1.577.227a20.147,20.147,0,1,0-35.96,15.121Z" transform="translate(-30.981 -44.319)" fill="#ffc1aa"/><path d="M147.814,120.293a17.88,17.88,0,1,1-.2-2.672,18.067,18.067,0,0,1,.2,2.672.319.319,0,0,0,.637,0,18.574,18.574,0,1,0-.211,2.807,19.232,19.232,0,0,0,.213-2.809A.32.32,0,0,0,147.814,120.293Z" transform="translate(-43.956 -57.879)" fill="#a73f1b"/><circle cx="6.018" cy="6.018" r="6.018" transform="translate(79.806 56.378)" fill="#a73f1b"/></g></svg>