<svg xmlns="http://www.w3.org/2000/svg" xmlns:xlink="http://www.w3.org/1999/xlink" width="53.991" height="54" viewBox="0 0 53.991 54"><defs><clipPath id="a"><path d="M92.525,95.574H44.491A2.971,2.971,0,0,1,41.52,92.6V44.571A2.971,2.971,0,0,1,44.491,41.6H92.525A2.971,2.971,0,0,1,95.5,44.571V92.6A2.971,2.971,0,0,1,92.525,95.574Z" transform="translate(-41.52 -41.6)"/></clipPath><clipPath id="b"><path d="M114.583,76.171H66.551A2.971,2.971,0,0,1,63.58,73.2V21.591a2.971,2.971,0,0,1,2.971-2.971h48.032a2.971,2.971,0,0,1,2.971,2.971V73.2A2.971,2.971,0,0,1,114.583,76.171Z" transform="translate(-63.58 -18.62)"/></clipPath></defs><g transform="translate(-41.52 -41.489)"><g transform="translate(41.52 41.508)"><path d="M92.525,95.574H44.491A2.971,2.971,0,0,1,41.52,92.6V44.571A2.971,2.971,0,0,1,44.491,41.6H92.525A2.971,2.971,0,0,1,95.5,44.571V92.6A2.971,2.971,0,0,1,92.525,95.574Z" transform="translate(-41.52 -41.6)" fill="#64d3ff"/><g transform="translate(0)" clip-path="url(#a)"><path d="M114.583,76.171H66.551A2.971,2.971,0,0,1,63.58,73.2V21.591a2.971,2.971,0,0,1,2.971-2.971h48.032a2.971,2.971,0,0,1,2.971,2.971V73.2A2.971,2.971,0,0,1,114.583,76.171Z" transform="translate(-59.822 -22.534)" fill="#aeecff"/><g transform="translate(3.758 -3.914)" clip-path="url(#b)"><path d="M270.352,253.153h23.464s0-2.853-3.3-2.514c0,0,1.6-4.441-3.08-5.795a4.641,4.641,0,0,0-5.3,1.519,6.832,6.832,0,0,0-7.192-6.551,7.311,7.311,0,0,0-7.82,6.166,4.028,4.028,0,0,0-4.253-1.426,3.833,3.833,0,0,0-2.926,3.839,2.466,2.466,0,0,0,.141,1.032s-3.214-.818-4.889,1.128a3.616,3.616,0,0,0-.751,2.6h15.913Z" transform="translate(-221.919 -202.133)" fill="#fff"/></g><g transform="translate(3.758 -3.914)" clip-path="url(#b)"><path d="M-82.768,178.92h30.363s0-3.693-4.274-3.253c0,0,2.066-5.746-3.984-7.5-4.684-1.358-6.865,1.967-6.865,1.967s-.213-8.323-9.306-8.476-10.12,7.979-10.12,7.979a5.213,5.213,0,0,0-5.5-1.845,5.243,5.243,0,0,0-3.736,4.7s0,.054.133,1.606a5.63,5.63,0,0,0-6.326,1.46,5.029,5.029,0,0,0-.971,3.364h20.589Z" transform="translate(74.929 -137.292)" fill="#fff"/></g></g></g><path d="M322.914,134.838v28.8c0,.39-.012.78,0,1.17v.051a.273.273,0,0,0,.545,0v-28.8c0-.39.012-.78,0-1.17v-.051a.273.273,0,0,0-.545,0Z" transform="translate(-233.457 -77.23)" fill="#a73f1b"/><circle cx="1.664" cy="1.664" r="1.664" transform="translate(88.026 84.692)" fill="#a73f1b"/><path d="M78.8,176.223a7.5,7.5,0,0,0-4.039-5.468l.271-.625a8.093,8.093,0,0,1,4.439,5.981Z" transform="translate(-27.578 -106.728)" fill="#c0f0ff"/><path d="M150.478,210.08l-.678-.07a4.152,4.152,0,0,0-2.71-4.7l.22-.646A4.853,4.853,0,0,1,150.478,210.08Z" transform="translate(-87.587 -135.377)" fill="#c0f0ff"/><path d="M181.556,250.8a1.472,1.472,0,0,0-1.136-1.056l.124-.669a2.152,2.152,0,0,1,1.683,1.617Z" transform="translate(-115.24 -172.222)" fill="#c0f0ff"/><path d="M259.488,301.563l-.668-.14a2.793,2.793,0,0,1,2.473-2.163l.063.678A2.106,2.106,0,0,0,259.488,301.563Z" transform="translate(-180.285 -213.862)" fill="#c0f0ff"/><path d="M290.809,273.995a3.328,3.328,0,0,1,3.1-3.865v.681a2.6,2.6,0,0,0-1.824.915,2.642,2.642,0,0,0-.6,2.174Z" transform="translate(-206.792 -189.694)" fill="#c0f0ff"/><rect width="53.989" height="3.31" transform="translate(41.52 55.27)" fill="#ea7951"/><rect width="53.989" height="3.31" transform="translate(41.52 50.681)" fill="#ea7951"/><rect width="53.989" height="3.31" transform="translate(41.52 46.093)" fill="#ea7951"/><path d="M95.519,44.89v-.339a2.971,2.971,0,0,0-2.971-2.971H44.5a2.971,2.971,0,0,0-2.971,2.971v.339Z" transform="translate(-0.008 -0.076)" fill="#ea7951"/><path d="M45.278,122.39H41.52v3.31h3.758" transform="translate(0 -67.12)" fill="#c75d37"/><path d="M45.278,95.45H41.52v3.31h3.758" transform="translate(0 -44.769)" fill="#c75d37"/><path d="M45.278,68.52H41.52v3.31h3.758" transform="translate(0 -22.427)" fill="#c75d37"/><path d="M47.085,41.5l-2.584.014A2.971,2.971,0,0,0,41.53,44.48v.339h3.756C44.744,41.269,47.085,41.5,47.085,41.5Z" transform="translate(-0.008 -0.003)" fill="#c75d37"/><path d="M62.591,61.626v-.911a.256.256,0,0,0-.511,0v.911a.256.256,0,0,0,.511,0Z" transform="translate(-17.058 -15.738)" fill="#23b5e2"/><path d="M62.55,44.7c0-.441,0-.882,0-1.324a1.336,1.336,0,0,1,1.322-1.349.256.256,0,0,0,0-.511,1.856,1.856,0,0,0-1.72,1.2,4.047,4.047,0,0,0-.112,1.419v.56a.256.256,0,0,0,.511,0Z" transform="translate(-17.016 -0.026)" fill="#a73f1b"/><path d="M71.636,42.005h43.828c.591,0,1.186.012,1.777,0h.078a.256.256,0,0,0,0-.511H73.491c-.591,0-1.186-.012-1.777,0h-.078a.256.256,0,0,0,0,.511Z" transform="translate(-24.781 0)" fill="#a73f1b"/><path d="M62.591,88.838v-.853a.256.256,0,0,0-.511,0v.853a.256.256,0,0,0,.511,0Z" transform="translate(-17.058 -38.363)" fill="#23b5e2"/><path d="M62.591,70.937V67.859a.256.256,0,0,0-.511,0v3.078a.256.256,0,0,0,.511,0Z" transform="translate(-17.058 -21.674)" fill="#a73f1b"/><path d="M62.591,115.38V114.5a.256.256,0,0,0-.511,0v.876a.256.256,0,0,0,.511,0Z" transform="translate(-17.058 -60.366)" fill="#23b5e2"/><path d="M62.591,98.005V94.929a.256.256,0,0,0-.511,0v3.076a.256.256,0,0,0,.511,0Z" transform="translate(-17.058 -44.133)" fill="#a73f1b"/><path d="M110.782,177.868H65.555c-.135,0-.269,0-.4-.005a2.734,2.734,0,0,1-2.54-2.54c-.026-.468-.005-.942-.005-1.409q0-1.7,0-3.409,0-2.445,0-4.889,0-2.859,0-5.717,0-2.954,0-5.907,0-2.693,0-5.386,0-2.116,0-4.23,0-1.206,0-2.412v-.317a.256.256,0,0,0-.511,0v1.31q0,1.73,0,3.461,0,2.484,0,4.965,0,2.88,0,5.757,0,2.949,0,5.9,0,2.7,0,5.391,0,2.085,0,4.17,0,1.152,0,2.306a4.59,4.59,0,0,0,.063.877,3.245,3.245,0,0,0,2.691,2.555,9.589,9.589,0,0,0,1.346.036h44.581a.255.255,0,0,0,0-.509Z" transform="translate(-17.058 -82.894)" fill="#23b5e2"/><path d="M62.591,124.959v-3.08a.256.256,0,0,0-.511,0v3.08a.256.256,0,0,0,.511,0Z" transform="translate(-17.058 -66.492)" fill="#a73f1b"/></g></svg>